<svg width="1024" height="1024" viewBox="0 0 1024 1024" fill="none" xmlns="http://www.w3.org/2000/svg">
<path d="M537.401 691.149C521.044 698.783 501.175 698.52 485.065 690.39L405.456 650.174C403.61 649.267 401.779 648.327 399.982 647.387C399.586 647.189 399.207 646.991 398.795 646.793L382.289 638.467C377.804 636.191 373.797 633.404 370.351 630.239C370.335 630.222 370.302 630.222 370.285 630.173C361.447 621.978 356.286 611.161 356.286 599.915V403.564C404.582 418.322 457.512 426.088 512.008 426.088C566.504 426.088 619.418 418.305 667.747 403.564V479.661L768 429.023V227C752.566 247.183 732.4 262.402 717.643 271.867C702.407 281.645 685.67 290.219 667.73 297.441C621.924 315.925 568.368 325.819 511.992 325.819C455.616 325.819 402.06 315.925 356.27 297.441C338.33 290.219 321.61 281.645 306.357 271.867C291.6 262.402 271.45 247.183 256 227V599.915C256 648.195 281.08 692.715 322.467 719.543C322.467 719.543 324.611 720.351 328.7 721.472C325.452 720.582 323.424 719.906 322.715 719.658C327.331 722.725 332.08 725.479 337.093 727.952L439.836 779.893C462.426 791.32 487.225 797.008 511.959 797.008C536.692 797.008 561.558 791.32 584.148 779.893L667.714 737.648L767.983 686.977V515.788L667.714 566.393V625.341L538.968 690.39" fill="white"/>
<rect x="20" y="20" width="984" height="984" rx="492" stroke="white" stroke-width="40"/>
</svg>
