<svg width="833" height="200" viewBox="0 0 833 200" fill="none" xmlns="http://www.w3.org/2000/svg">
<path d="M107.5 10.1036L174.103 48.5566C178.744 51.2361 181.603 56.188 181.603 61.547V138.453C181.603 143.812 178.744 148.764 174.103 151.443L107.5 189.896C102.859 192.576 97.141 192.576 92.5 189.896L25.8975 151.443C21.2564 148.764 18.3975 143.812 18.3975 138.453V61.547C18.3975 56.188 21.2564 51.2361 25.8975 48.5566L92.5 10.1036C97.141 7.42414 102.859 7.42414 107.5 10.1036Z" stroke="url(#paint0_linear_14_470)" stroke-width="10"/>
<g clip-path="url(#clip0_14_470)">
<path d="M150 44.3359V83.7961L130.418 93.687V78.8234C120.978 81.7059 110.646 83.2229 99.9984 83.2229C89.3507 83.2229 79.0186 81.7027 69.582 78.8234V117.176C69.582 119.372 70.5868 121.485 72.3163 123.086C50.8535 109.179 50 90.434 50 90.434V44.3359C53.0146 48.2781 56.9535 51.2508 59.8361 53.0995C62.812 55.0094 66.081 56.6842 69.5852 58.0948C78.5291 61.7053 88.99 63.6377 100.002 63.6377C111.013 63.6377 121.474 61.7053 130.421 58.0948C133.925 56.6842 137.191 55.0094 140.17 53.0995C143.05 51.2508 146.989 48.2781 150.006 44.3359H150Z" fill="url(#paint1_linear_14_470)"/>
<path d="M104.958 134.999C80.6612 147.144 62.9795 140.542 62.9795 140.542C54.8987 135.302 50 126.606 50 117.176V90.4341C50 90.4341 50.8535 109.179 72.3163 123.086C72.3196 123.095 72.326 123.095 72.3292 123.099C73.0024 123.717 73.7882 124.261 74.661 124.706L77.885 126.332C77.9623 126.371 78.0363 126.409 78.1168 126.448C78.4679 126.632 78.8254 126.815 79.1861 126.992L94.7357 134.848C97.8824 136.436 101.763 136.487 104.958 134.996V134.999Z" fill="url(#paint2_linear_14_470)"/>
<path d="M150 112.254V134.178L130.415 144.075L114.092 152.327C109.68 154.559 104.836 155.67 99.992 155.67C95.148 155.67 90.317 154.559 85.9046 152.327L65.8363 142.181C64.8572 141.698 63.9296 141.164 63.0278 140.561C64.139 140.941 81.4632 146.752 104.955 134.999C105.058 134.948 105.164 134.896 105.268 134.841L130.415 122.136L150 112.251V112.254Z" fill="url(#paint3_linear_14_470)"/>
<path d="M130.415 125.263V110.625L150 100.744V125.263H130.415Z" fill="url(#paint4_linear_14_470)"/>
</g>
<path d="M256.383 123H227.48C216.653 123 209.081 120.197 204.763 114.59C200.51 108.983 198.383 100.509 198.383 89.1667C198.383 77.8244 200.51 69.35 204.763 63.7433C209.081 58.1367 216.653 55.3333 227.48 55.3333H255.417V68.8667H236.083C228.286 68.8667 223.001 70.22 220.23 72.9267C217.523 75.6333 216.17 81.0467 216.17 89.1667C216.17 97.2867 217.523 102.7 220.23 105.407C223.001 108.113 228.286 109.467 236.083 109.467H256.383V123ZM282.96 56.01C287.278 55.0433 292.917 54.56 299.877 54.56C306.837 54.56 312.475 55.0433 316.793 56.01C321.111 56.9767 324.752 58.7489 327.717 61.3267C330.745 63.9044 332.84 67.4167 334 71.8633C335.224 76.31 335.837 82.0778 335.837 89.1667C335.837 96.2556 335.224 102.023 334 106.47C332.84 110.917 330.745 114.461 327.717 117.103C324.752 119.681 321.111 121.453 316.793 122.42C312.475 123.322 306.837 123.773 299.877 123.773C292.917 123.773 287.278 123.322 282.96 122.42C278.642 121.453 274.969 119.681 271.94 117.103C268.975 114.461 266.881 110.917 265.657 106.47C264.497 102.023 263.917 96.2556 263.917 89.1667C263.917 82.0778 264.497 76.31 265.657 71.8633C266.881 67.4167 268.975 63.9044 271.94 61.3267C274.969 58.7489 278.642 56.9767 282.96 56.01ZM285.473 72.6367C282.96 75.6011 281.703 81.1111 281.703 89.1667C281.703 97.2222 282.96 102.764 285.473 105.793C288.051 108.758 292.852 110.24 299.877 110.24C306.901 110.24 311.67 108.758 314.183 105.793C316.761 102.764 318.05 97.2222 318.05 89.1667C318.05 81.1111 316.761 75.6011 314.183 72.6367C311.67 69.6078 306.901 68.0933 299.877 68.0933C292.852 68.0933 288.051 69.6078 285.473 72.6367ZM419.207 76.31L405.287 115.17C404.191 118.199 402.903 120.39 401.42 121.743C399.938 123.097 397.457 123.773 393.977 123.773C390.433 123.773 387.919 123.097 386.437 121.743C384.955 120.39 383.666 118.199 382.57 115.17L368.747 76.31C368.167 74.7633 367.684 73.99 367.297 73.99C366.653 73.99 366.33 74.6989 366.33 76.1167L366.814 123H349.414V65C349.414 62.8733 349.865 61.0689 350.767 59.5867C351.669 58.1044 352.861 57.0411 354.344 56.3967C355.89 55.6878 357.34 55.2044 358.694 54.9467C360.111 54.6889 361.594 54.56 363.14 54.56C370.551 54.56 375.449 57.8789 377.834 64.5167L392.044 103.57C392.688 105.439 393.333 106.373 393.977 106.373C394.621 106.373 395.266 105.439 395.91 103.57L410.12 64.5167C412.505 57.8789 417.37 54.56 424.717 54.56C433.933 54.56 438.54 58.04 438.54 65V123H421.14L421.72 76.1167C421.72 74.6989 421.366 73.99 420.657 73.99C420.27 73.99 419.787 74.7633 419.207 76.31ZM510.772 55.3333V68.48H475.972C474.297 68.48 473.104 68.8344 472.396 69.5433C471.751 70.1878 471.429 71.3478 471.429 73.0233V82.4H509.902V94.9667H471.429V105.31C471.429 106.986 471.751 108.178 472.396 108.887C473.104 109.531 474.297 109.853 475.972 109.853H511.159V123H464.276C457.444 123 454.029 119.552 454.029 112.657V65.7733C454.029 58.8133 457.444 55.3333 464.276 55.3333H510.772ZM593.97 55.3333V112.947C593.97 115.847 593.003 118.392 591.07 120.583C589.201 122.71 586.043 123.773 581.596 123.773C575.732 123.773 571.446 121.711 568.74 117.587L542.35 77.8567C541.641 76.7611 541.029 76.2133 540.513 76.2133C539.74 76.2133 539.353 76.8578 539.353 78.1467V123H524.66V65.1933C524.66 61.6489 525.82 59.0067 528.14 57.2667C530.524 55.4622 533.618 54.56 537.42 54.56C543.155 54.56 547.312 56.4933 549.89 60.36L576.473 100.477C576.538 100.541 576.634 100.734 576.763 101.057C576.956 101.314 577.085 101.508 577.15 101.637C577.279 101.701 577.44 101.798 577.633 101.927C577.826 102.056 578.02 102.12 578.213 102.12C578.922 102.12 579.276 101.572 579.276 100.477V55.3333H593.97ZM646.667 123H629.267V68.8667H604.134V55.3333H671.801V68.8667H646.667V123ZM697.192 56.01C701.509 55.0433 707.148 54.56 714.108 54.56C721.068 54.56 726.707 55.0433 731.025 56.01C735.343 56.9767 738.984 58.7489 741.948 61.3267C744.977 63.9044 747.072 67.4167 748.232 71.8633C749.456 76.31 750.068 82.0778 750.068 89.1667C750.068 96.2556 749.456 102.023 748.232 106.47C747.072 110.917 744.977 114.461 741.948 117.103C738.984 119.681 735.343 121.453 731.025 122.42C726.707 123.322 721.068 123.773 714.108 123.773C707.148 123.773 701.509 123.322 697.192 122.42C692.874 121.453 689.201 119.681 686.172 117.103C683.207 114.461 681.113 110.917 679.888 106.47C678.728 102.023 678.148 96.2556 678.148 89.1667C678.148 82.0778 678.728 76.31 679.888 71.8633C681.113 67.4167 683.207 63.9044 686.172 61.3267C689.201 58.7489 692.874 56.9767 697.192 56.01ZM699.705 72.6367C697.192 75.6011 695.935 81.1111 695.935 89.1667C695.935 97.2222 697.192 102.764 699.705 105.793C702.283 108.758 707.084 110.24 714.108 110.24C721.133 110.24 725.902 108.758 728.415 105.793C730.993 102.764 732.282 97.2222 732.282 89.1667C732.282 81.1111 730.993 75.6011 728.415 72.6367C725.902 69.6078 721.133 68.0933 714.108 68.0933C707.084 68.0933 702.283 69.6078 699.705 72.6367ZM763.645 123V65.7733C763.645 58.8133 767.061 55.3333 773.892 55.3333H810.045C816.748 55.3333 821.42 57.17 824.062 60.8433C826.769 64.5167 828.122 70.0911 828.122 77.5667C828.122 93.0978 822.999 100.863 812.752 100.863H807.919V101.347L829.475 123H808.112L792.839 105.407C792.581 105.084 792.065 104.537 791.292 103.763C790.519 102.926 789.939 102.281 789.552 101.83C789.165 101.379 788.714 100.799 788.199 100.09C787.683 99.3811 787.297 98.6722 787.039 97.9633C786.845 97.2544 786.749 96.5456 786.749 95.8367V94.29C786.749 91.97 787.554 90.3911 789.165 89.5533C790.777 88.6511 793.29 88.2 796.705 88.2H802.409C805.502 88.2 807.597 87.4267 808.692 85.88C809.788 84.3333 810.335 81.7556 810.335 78.1467C810.335 74.6667 809.723 72.25 808.499 70.8967C807.274 69.5433 805.019 68.8667 801.732 68.8667H785.589C783.913 68.8667 782.721 69.2211 782.012 69.93C781.368 70.5744 781.045 71.7344 781.045 73.41V123H763.645Z" fill="url(#paint5_linear_14_470)"/>
<path d="M213.45 147H202.05C200.35 147 199.5 146.125 199.5 144.375V129.5H202.8V143.125C202.8 143.625 202.883 143.958 203.05 144.125C203.217 144.292 203.55 144.375 204.05 144.375H213.45V147ZM227.804 147H220.454C219.421 147 218.562 146.858 217.879 146.575C217.212 146.292 216.704 145.85 216.354 145.25C216.004 144.633 215.762 143.95 215.629 143.2C215.512 142.45 215.454 141.5 215.454 140.35C215.454 137.783 215.937 136.017 216.904 135.05C217.887 134.083 219.537 133.6 221.854 133.6C223.921 133.6 225.496 133.983 226.579 134.75C227.679 135.5 228.229 136.867 228.229 138.85C228.229 140.517 227.546 141.35 226.179 141.35H218.479C218.479 142.5 218.662 143.358 219.029 143.925C219.412 144.475 220.179 144.75 221.329 144.75H227.804V147ZM218.479 139.1H224.554C224.987 139.1 225.204 138.842 225.204 138.325C225.204 137.508 224.879 136.892 224.229 136.475C223.596 136.058 222.804 135.85 221.854 135.85C220.621 135.85 219.746 136.108 219.229 136.625C218.729 137.125 218.479 137.95 218.479 139.1ZM238.761 147H236.936C235.353 147 234.145 146.667 233.311 146C232.478 145.333 232.061 144.225 232.061 142.675V136H230.236V133.75H232.061V129.5H234.986V133.75H238.761V136H234.986V142.075C234.986 143.042 235.236 143.733 235.736 144.15C236.236 144.55 237.003 144.75 238.036 144.75H238.761V147ZM242.182 134.9L240.007 133.575L243.157 128.55L245.532 130L242.182 134.9ZM248.6 147V144.75H256.05C256.384 144.75 256.667 144.65 256.9 144.45C257.15 144.25 257.275 143.95 257.275 143.55C257.275 143.283 257.225 143.058 257.125 142.875C257.025 142.675 256.859 142.517 256.625 142.4C256.392 142.267 256.192 142.175 256.025 142.125C255.859 142.058 255.592 141.983 255.225 141.9C254.859 141.8 254.617 141.733 254.5 141.7L251.95 141C250.584 140.633 249.65 140.158 249.15 139.575C248.667 138.975 248.425 138.167 248.425 137.15C248.425 135.95 248.725 135.083 249.325 134.55C249.925 134.017 250.892 133.75 252.225 133.75H259.7V136H252.675C252.175 136 251.817 136.083 251.6 136.25C251.384 136.417 251.275 136.733 251.275 137.2C251.275 137.55 251.392 137.85 251.625 138.1C251.875 138.333 252.109 138.492 252.325 138.575C252.559 138.658 252.9 138.767 253.35 138.9L256.2 139.7C256.784 139.867 257.234 140.008 257.55 140.125C257.867 140.225 258.225 140.383 258.625 140.6C259.042 140.8 259.35 141.025 259.55 141.275C259.767 141.525 259.95 141.85 260.1 142.25C260.25 142.65 260.325 143.108 260.325 143.625C260.325 144.725 260.084 145.567 259.6 146.15C259.117 146.717 258.275 147 257.075 147H248.6ZM277.343 147H272.718C271.218 147 270.468 146.25 270.468 144.75V129.5H273.393V133.75H277.343C279.36 133.75 280.768 134.308 281.568 135.425C282.368 136.542 282.768 138.183 282.768 140.35C282.768 142.517 282.36 144.167 281.543 145.3C280.743 146.433 279.343 147 277.343 147ZM273.393 136V144C273.393 144.5 273.643 144.75 274.143 144.75H276.618C277.902 144.75 278.743 144.383 279.143 143.65C279.543 142.917 279.743 141.817 279.743 140.35C279.743 139.633 279.71 139.05 279.643 138.6C279.577 138.133 279.443 137.683 279.243 137.25C279.043 136.817 278.727 136.5 278.293 136.3C277.86 136.1 277.302 136 276.618 136H273.393ZM298.177 133.75V144.75C298.177 146.25 297.427 147 295.927 147H291.077C289.444 147 288.177 146.658 287.277 145.975C286.377 145.292 285.927 144.125 285.927 142.475V133.75H288.852V141.7C288.852 142.733 289.069 143.5 289.502 144C289.936 144.5 290.644 144.75 291.627 144.75H294.502C295.002 144.75 295.252 144.5 295.252 144V133.75H298.177ZM301.728 147V133.75H304.653V147H301.728ZM304.653 132H301.728V129.3H304.653V132ZM308.203 147V129.5H311.128V147H308.203ZM326.577 129.5V144.75C326.577 146.25 325.827 147 324.327 147H319.702C317.702 147 316.294 146.433 315.477 145.3C314.677 144.167 314.277 142.517 314.277 140.35C314.277 138.183 314.677 136.542 315.477 135.425C316.277 134.308 317.686 133.75 319.702 133.75H323.652V129.5H326.577ZM323.652 136H320.427C319.744 136 319.186 136.1 318.752 136.3C318.319 136.5 318.002 136.817 317.802 137.25C317.602 137.683 317.469 138.133 317.402 138.6C317.336 139.05 317.302 139.633 317.302 140.35C317.302 141.067 317.336 141.658 317.402 142.125C317.469 142.575 317.602 143.025 317.802 143.475C318.002 143.908 318.319 144.233 318.752 144.45C319.186 144.65 319.744 144.75 320.427 144.75H322.902C323.402 144.75 323.652 144.5 323.652 144V136ZM350.571 133.75L342.671 151.275H339.696L341.721 146.95L335.821 133.75H338.846L343.096 143.925L347.596 133.75H350.571ZM353.76 135.075C354.877 134.092 356.668 133.6 359.135 133.6C361.602 133.6 363.393 134.092 364.51 135.075C365.627 136.058 366.185 137.817 366.185 140.35C366.185 142.917 365.627 144.692 364.51 145.675C363.41 146.658 361.618 147.15 359.135 147.15C356.652 147.15 354.852 146.658 353.735 145.675C352.635 144.692 352.085 142.917 352.085 140.35C352.085 137.817 352.643 136.058 353.76 135.075ZM355.11 140.35C355.11 142 355.41 143.175 356.01 143.875C356.61 144.558 357.652 144.9 359.135 144.9C360.618 144.9 361.66 144.558 362.26 143.875C362.86 143.175 363.16 142 363.16 140.35C363.16 138.717 362.86 137.558 362.26 136.875C361.66 136.192 360.618 135.85 359.135 135.85C357.652 135.85 356.61 136.192 356.01 136.875C355.41 137.558 355.11 138.717 355.11 140.35ZM381.586 133.75V144.75C381.586 146.25 380.836 147 379.336 147H374.486C372.852 147 371.586 146.658 370.686 145.975C369.786 145.292 369.336 144.125 369.336 142.475V133.75H372.261V141.7C372.261 142.733 372.477 143.5 372.911 144C373.344 144.5 374.052 144.75 375.036 144.75H377.911C378.411 144.75 378.661 144.5 378.661 144V133.75H381.586ZM385.136 147V138.75C385.136 137 385.578 135.733 386.461 134.95C387.345 134.15 388.686 133.75 390.486 133.75H392.461V136H391.236C390.086 136 389.27 136.283 388.786 136.85C388.303 137.417 388.061 138.308 388.061 139.525V147H385.136ZM412.768 136H407.943C407.343 136 406.835 136.075 406.418 136.225C406.001 136.375 405.668 136.567 405.418 136.8C405.185 137.033 405.001 137.35 404.868 137.75C404.735 138.15 404.651 138.542 404.618 138.925C404.585 139.308 404.568 139.783 404.568 140.35C404.568 141.067 404.601 141.658 404.668 142.125C404.735 142.575 404.876 143.025 405.093 143.475C405.31 143.908 405.651 144.233 406.118 144.45C406.601 144.65 407.21 144.75 407.943 144.75H413.068V147H407.218C405.101 147 403.626 146.442 402.793 145.325C401.96 144.192 401.543 142.533 401.543 140.35C401.543 138.183 401.96 136.542 402.793 135.425C403.626 134.308 405.101 133.75 407.218 133.75H412.768V136ZM416.634 133.75H424.159C425.376 133.75 426.301 134.108 426.934 134.825C427.568 135.542 427.884 136.483 427.884 137.65V144.75C427.884 146.25 427.134 147 425.634 147H418.959C416.759 147 415.659 145.625 415.659 142.875C415.659 141.592 415.934 140.583 416.484 139.85C417.034 139.117 417.859 138.75 418.959 138.75H424.959V137.9C424.959 136.633 424.343 136 423.109 136H416.634V133.75ZM424.959 141H420.084C419.151 141 418.684 141.625 418.684 142.875C418.684 144.125 419.151 144.75 420.084 144.75H424.209C424.709 144.75 424.959 144.5 424.959 144V141ZM431.445 147V138.75C431.445 137 431.887 135.733 432.77 134.95C433.653 134.15 434.995 133.75 436.795 133.75H438.77V136H437.545C436.395 136 435.578 136.283 435.095 136.85C434.612 137.417 434.37 138.308 434.37 139.525V147H431.445ZM452.872 147H445.522C444.489 147 443.631 146.858 442.947 146.575C442.281 146.292 441.772 145.85 441.422 145.25C441.072 144.633 440.831 143.95 440.697 143.2C440.581 142.45 440.522 141.5 440.522 140.35C440.522 137.783 441.006 136.017 441.972 135.05C442.956 134.083 444.606 133.6 446.922 133.6C448.989 133.6 450.564 133.983 451.647 134.75C452.747 135.5 453.297 136.867 453.297 138.85C453.297 140.517 452.614 141.35 451.247 141.35H443.547C443.547 142.5 443.731 143.358 444.097 143.925C444.481 144.475 445.247 144.75 446.397 144.75H452.872V147ZM443.547 139.1H449.622C450.056 139.1 450.272 138.842 450.272 138.325C450.272 137.508 449.947 136.892 449.297 136.475C448.664 136.058 447.872 135.85 446.922 135.85C445.689 135.85 444.814 136.108 444.297 136.625C443.797 137.125 443.547 137.95 443.547 139.1ZM468.405 147H461.055C460.021 147 459.163 146.858 458.48 146.575C457.813 146.292 457.305 145.85 456.955 145.25C456.605 144.633 456.363 143.95 456.23 143.2C456.113 142.45 456.055 141.5 456.055 140.35C456.055 137.783 456.538 136.017 457.505 135.05C458.488 134.083 460.138 133.6 462.455 133.6C464.521 133.6 466.096 133.983 467.18 134.75C468.28 135.5 468.83 136.867 468.83 138.85C468.83 140.517 468.146 141.35 466.78 141.35H459.08C459.08 142.5 459.263 143.358 459.63 143.925C460.013 144.475 460.78 144.75 461.93 144.75H468.405V147ZM459.08 139.1H465.155C465.588 139.1 465.805 138.842 465.805 138.325C465.805 137.508 465.48 136.892 464.83 136.475C464.196 136.058 463.405 135.85 462.455 135.85C461.221 135.85 460.346 136.108 459.83 136.625C459.33 137.125 459.08 137.95 459.08 139.1ZM471.987 147V138.75C471.987 137 472.429 135.733 473.312 134.95C474.195 134.15 475.537 133.75 477.337 133.75H479.312V136H478.087C476.937 136 476.12 136.283 475.637 136.85C475.154 137.417 474.912 138.308 474.912 139.525V147H471.987ZM490.344 133.775L492.894 143.55C492.977 143.817 493.06 143.95 493.144 143.95C493.244 143.95 493.327 143.825 493.394 143.575L495.819 134.825C496.052 134.008 496.694 133.6 497.744 133.6C498.794 133.6 499.435 134.008 499.669 134.825L502.119 143.575C502.185 143.825 502.269 143.95 502.369 143.95C502.469 143.95 502.552 143.817 502.619 143.55L505.144 133.775H507.944L504.794 145.35C504.627 145.983 504.36 146.442 503.994 146.725C503.644 147.008 503.152 147.15 502.519 147.15C501.285 147.15 500.527 146.658 500.244 145.675L497.944 137.375C497.877 137.092 497.81 136.95 497.744 136.95C497.677 136.95 497.61 137.092 497.544 137.375L495.244 145.675C494.96 146.658 494.202 147.15 492.969 147.15C492.335 147.15 491.835 147.008 491.469 146.725C491.119 146.442 490.86 145.983 490.694 145.35L487.544 133.775H490.344ZM510.234 147V133.75H513.159V147H510.234ZM513.159 132H510.234V129.3H513.159V132ZM524.084 147H522.259C520.675 147 519.467 146.667 518.634 146C517.8 145.333 517.384 144.225 517.384 142.675V136H515.559V133.75H517.384V129.5H520.309V133.75H524.084V136H520.309V142.075C520.309 143.042 520.559 143.733 521.059 144.15C521.559 144.55 522.325 144.75 523.359 144.75H524.084V147ZM526.479 147V129.5H529.404V133.75H533.379C535.012 133.75 536.279 134.092 537.179 134.775C538.079 135.458 538.529 136.625 538.529 138.275V147H535.604V139.05C535.604 138.017 535.387 137.25 534.954 136.75C534.521 136.25 533.812 136 532.829 136H529.404V147H526.479ZM561.42 133.75V144.75C561.42 146.25 560.67 147 559.17 147H554.32C552.686 147 551.42 146.658 550.52 145.975C549.62 145.292 549.17 144.125 549.17 142.475V133.75H552.095V141.7C552.095 142.733 552.311 143.5 552.745 144C553.178 144.5 553.886 144.75 554.87 144.75H557.745C558.245 144.75 558.495 144.5 558.495 144V133.75H561.42ZM564.645 147V144.75H572.095C572.429 144.75 572.712 144.65 572.945 144.45C573.195 144.25 573.32 143.95 573.32 143.55C573.32 143.283 573.27 143.058 573.17 142.875C573.07 142.675 572.904 142.517 572.67 142.4C572.437 142.267 572.237 142.175 572.07 142.125C571.904 142.058 571.637 141.983 571.27 141.9C570.904 141.8 570.662 141.733 570.545 141.7L567.995 141C566.629 140.633 565.695 140.158 565.195 139.575C564.712 138.975 564.47 138.167 564.47 137.15C564.47 135.95 564.77 135.083 565.37 134.55C565.97 134.017 566.937 133.75 568.27 133.75H575.745V136H568.72C568.22 136 567.862 136.083 567.645 136.25C567.429 136.417 567.32 136.733 567.32 137.2C567.32 137.55 567.437 137.85 567.67 138.1C567.92 138.333 568.154 138.492 568.37 138.575C568.604 138.658 568.945 138.767 569.395 138.9L572.245 139.7C572.829 139.867 573.279 140.008 573.595 140.125C573.912 140.225 574.27 140.383 574.67 140.6C575.087 140.8 575.395 141.025 575.595 141.275C575.812 141.525 575.995 141.85 576.145 142.25C576.295 142.65 576.37 143.108 576.37 143.625C576.37 144.725 576.129 145.567 575.645 146.15C575.162 146.717 574.32 147 573.12 147H564.645ZM582.828 147H579.778V143.775H582.828V147Z" fill="#242424"/>
<defs>
<linearGradient id="paint0_linear_14_470" x1="100" y1="0" x2="100" y2="200" gradientUnits="userSpaceOnUse">
<stop stop-color="#43AFFF"/>
<stop offset="1" stop-color="#274BCA"/>
</linearGradient>
<linearGradient id="paint1_linear_14_470" x1="100.002" y1="67.319" x2="100.002" y2="103.707" gradientUnits="userSpaceOnUse">
<stop stop-color="#43AFFF"/>
<stop offset="0.25" stop-color="#3A8FEE"/>
<stop offset="0.73" stop-color="#2F67D9"/>
<stop offset="1" stop-color="#274CCA"/>
</linearGradient>
<linearGradient id="paint2_linear_14_470" x1="59.5848" y1="107.246" x2="80.6612" y2="134.851" gradientUnits="userSpaceOnUse">
<stop stop-color="#43AFFF"/>
<stop offset="0.25" stop-color="#3D9BF4"/>
<stop offset="0.73" stop-color="#306ADB"/>
<stop offset="1" stop-color="#274BCA"/>
</linearGradient>
<linearGradient id="paint3_linear_14_470" x1="107.332" y1="137.331" x2="136.711" y2="123.06" gradientUnits="userSpaceOnUse">
<stop stop-color="#43AFFF"/>
<stop offset="0.25" stop-color="#3E9FF7"/>
<stop offset="0.73" stop-color="#2F68D9"/>
<stop offset="1" stop-color="#274BCA"/>
</linearGradient>
<linearGradient id="paint4_linear_14_470" x1="105.918" y1="134.416" x2="135.294" y2="120.145" gradientUnits="userSpaceOnUse">
<stop stop-color="#43AFFF"/>
<stop offset="0.25" stop-color="#3D9CF5"/>
<stop offset="0.73" stop-color="#306EDC"/>
<stop offset="1" stop-color="#274BCA"/>
</linearGradient>
<linearGradient id="paint5_linear_14_470" x1="514" y1="39" x2="514" y2="155" gradientUnits="userSpaceOnUse">
<stop stop-color="#43ACFE"/>
<stop offset="1" stop-color="#284DCB"/>
</linearGradient>
<clipPath id="clip0_14_470">
<rect width="100" height="111.334" fill="white" transform="translate(50 44.3359)"/>
</clipPath>
</defs>
</svg>
