<svg width="699" height="120" viewBox="0 0 699 120" fill="none" xmlns="http://www.w3.org/2000/svg">
<g clip-path="url(#clip0_15_555)">
<path d="M108.452 0V42.5318L87.3458 53.1925V37.172C77.1711 40.2789 66.0348 41.9139 54.5583 41.9139C43.0818 41.9139 31.9454 40.2754 21.7742 37.172V78.5096C21.7742 80.8771 22.8573 83.1544 24.7214 84.8797C1.5879 69.8901 0.667969 49.6864 0.667969 49.6864V0C3.91722 4.24902 8.16276 7.45314 11.2697 9.44573C14.4773 11.5043 18.0008 13.3094 21.7777 14.8299C31.4178 18.7214 42.693 20.8042 54.5617 20.8042C66.4305 20.8042 77.7057 18.7214 87.3493 14.8299C91.1262 13.3094 94.6462 11.5043 97.8573 9.44573C100.961 7.45314 105.206 4.24902 108.459 0H108.452Z" fill="white"/>
<path d="M59.9043 97.7205C33.7159 110.811 14.6578 103.695 14.6578 103.695C5.948 98.0468 0.667969 88.674 0.667969 78.5097V49.6865C0.667969 49.6865 1.5879 69.8902 24.7214 84.8798C24.7249 84.8902 24.7318 84.8902 24.7353 84.8936C25.4608 85.5602 26.3079 86.1468 27.2486 86.6259L30.7235 88.3789C30.8068 88.4206 30.8867 88.4623 30.9735 88.5039C31.3518 88.7018 31.7372 88.8997 32.126 89.0906L48.886 97.5574C52.2775 99.2688 56.4606 99.3243 59.9043 97.7171V97.7205Z" fill="white"/>
<path d="M108.451 73.2054V96.8353L87.3415 107.503L69.7483 116.397C64.9925 118.802 59.7715 120 54.5505 120C49.3294 120 44.1223 118.802 39.3665 116.397L17.7361 105.462C16.6807 104.941 15.681 104.365 14.709 103.716C15.9066 104.125 34.5794 110.388 59.8999 97.7205C60.011 97.665 60.1256 97.6095 60.2366 97.5504L87.3415 83.8557L108.451 73.2019V73.2054Z" fill="white"/>
<path d="M87.3428 87.2265V71.4489L108.452 60.7986V87.2265H87.3428Z" fill="white"/>
</g>
<path d="M183.836 85H158.015C148.344 85 141.579 82.4957 137.722 77.4871C133.922 72.4784 132.022 64.9079 132.022 54.7756C132.022 44.6432 133.922 37.0727 137.722 32.064C141.579 27.0554 148.344 24.5511 158.015 24.5511H182.972V36.6409H165.701C158.735 36.6409 154.014 37.8499 151.539 40.2678C149.121 42.6858 147.912 47.5217 147.912 54.7756C147.912 62.0294 149.121 66.8653 151.539 69.2833C154.014 71.7012 158.735 72.9102 165.701 72.9102H183.836V85ZM207.577 25.1556C211.435 24.292 216.472 23.8603 222.69 23.8603C228.907 23.8603 233.945 24.292 237.802 25.1556C241.659 26.0192 244.912 27.6023 247.56 29.9052C250.266 32.208 252.137 35.3456 253.173 39.3179C254.267 43.2903 254.814 48.4428 254.814 54.7756C254.814 61.1083 254.267 66.2608 253.173 70.2332C252.137 74.2056 250.266 77.3719 247.56 79.7323C244.912 82.0351 241.659 83.6183 237.802 84.4819C233.945 85.2879 228.907 85.6908 222.69 85.6908C216.472 85.6908 211.435 85.2879 207.577 84.4819C203.72 83.6183 200.439 82.0351 197.733 79.7323C195.085 77.3719 193.214 74.2056 192.12 70.2332C191.084 66.2608 190.565 61.1083 190.565 54.7756C190.565 48.4428 191.084 43.2903 192.12 39.3179C193.214 35.3456 195.085 32.208 197.733 29.9052C200.439 27.6023 203.72 26.0192 207.577 25.1556ZM209.823 40.0088C207.577 42.657 206.455 47.5793 206.455 54.7756C206.455 61.9719 207.577 66.9229 209.823 69.6287C212.126 72.2769 216.415 73.6011 222.69 73.6011C228.965 73.6011 233.225 72.2769 235.47 69.6287C237.773 66.9229 238.925 61.9719 238.925 54.7756C238.925 47.5793 237.773 42.657 235.47 40.0088C233.225 37.3029 228.965 35.95 222.69 35.95C216.415 35.95 212.126 37.3029 209.823 40.0088ZM329.292 43.2903L316.856 78.0052C315.878 80.711 314.726 82.6684 313.402 83.8774C312.078 85.0864 309.862 85.6908 306.753 85.6908C303.586 85.6908 301.341 85.0864 300.017 83.8774C298.693 82.6684 297.542 80.711 296.563 78.0052L284.214 43.2903C283.696 41.9086 283.264 41.2177 282.919 41.2177C282.343 41.2177 282.055 41.851 282.055 43.1176L282.487 85H266.943V33.1867C266.943 31.2868 267.346 29.6749 268.152 28.3508C268.958 27.0266 270.023 26.0767 271.347 25.501C272.729 24.8677 274.024 24.436 275.233 24.2057C276.5 23.9754 277.824 23.8603 279.205 23.8603C285.826 23.8603 290.201 26.8251 292.331 32.7549L305.026 67.6425C305.601 69.3121 306.177 70.1468 306.753 70.1468C307.328 70.1468 307.904 69.3121 308.48 67.6425L321.174 32.7549C323.304 26.8251 327.651 23.8603 334.214 23.8603C342.446 23.8603 346.563 26.9691 346.563 33.1867V85H331.019L331.537 43.1176C331.537 41.851 331.22 41.2177 330.587 41.2177C330.242 41.2177 329.81 41.9086 329.292 43.2903ZM411.09 24.5511V36.2955H380.002C378.505 36.2955 377.44 36.6121 376.807 37.2454C376.231 37.8211 375.943 38.8573 375.943 40.3542V48.7307H410.313V59.9569H375.943V69.1969C375.943 70.6938 376.231 71.7588 376.807 72.3921C377.44 72.9678 378.505 73.2556 380.002 73.2556H411.435V85H369.553C363.45 85 360.399 81.92 360.399 75.76V33.8775C360.399 27.6599 363.45 24.5511 369.553 24.5511H411.09ZM485.413 24.5511V76.019C485.413 78.6097 484.549 80.8837 482.822 82.8411C481.153 84.7409 478.332 85.6908 474.359 85.6908C469.121 85.6908 465.292 83.8486 462.874 80.1641L439.299 44.672C438.666 43.6933 438.119 43.2039 437.658 43.2039C436.968 43.2039 436.622 43.7796 436.622 44.931V85H423.496V33.3594C423.496 30.193 424.532 27.8326 426.605 26.2782C428.735 24.6663 431.498 23.8603 434.895 23.8603C440.019 23.8603 443.732 25.5874 446.035 29.0416L469.783 64.8792C469.84 64.9367 469.927 65.1094 470.042 65.3973C470.214 65.6276 470.33 65.8003 470.387 65.9154C470.502 65.973 470.646 66.0593 470.819 66.1745C470.992 66.2896 471.164 66.3472 471.337 66.3472C471.97 66.3472 472.287 65.8579 472.287 64.8792V24.5511H485.413ZM532.49 85H516.946V36.6409H494.493V24.5511H554.942V36.6409H532.49V85ZM577.625 25.1556C581.482 24.292 586.519 23.8603 592.737 23.8603C598.954 23.8603 603.992 24.292 607.849 25.1556C611.706 26.0192 614.959 27.6023 617.607 29.9052C620.313 32.208 622.184 35.3456 623.22 39.3179C624.314 43.2903 624.861 48.4428 624.861 54.7756C624.861 61.1083 624.314 66.2608 623.22 70.2332C622.184 74.2056 620.313 77.3719 617.607 79.7323C614.959 82.0351 611.706 83.6183 607.849 84.4819C603.992 85.2879 598.954 85.6908 592.737 85.6908C586.519 85.6908 581.482 85.2879 577.625 84.4819C573.767 83.6183 570.486 82.0351 567.78 79.7323C565.132 77.3719 563.261 74.2056 562.167 70.2332C561.131 66.2608 560.612 61.1083 560.612 54.7756C560.612 48.4428 561.131 43.2903 562.167 39.3179C563.261 35.3456 565.132 32.208 567.78 29.9052C570.486 27.6023 573.767 26.0192 577.625 25.1556ZM579.87 40.0088C577.625 42.657 576.502 47.5793 576.502 54.7756C576.502 61.9719 577.625 66.9229 579.87 69.6287C582.173 72.2769 586.462 73.6011 592.737 73.6011C599.012 73.6011 603.272 72.2769 605.517 69.6287C607.82 66.9229 608.972 61.9719 608.972 54.7756C608.972 47.5793 607.82 42.657 605.517 40.0088C603.272 37.3029 599.012 35.95 592.737 35.95C586.462 35.95 582.173 37.3029 579.87 40.0088ZM636.99 85V33.8775C636.99 27.6599 640.041 24.5511 646.144 24.5511H678.441C684.428 24.5511 688.602 26.1919 690.962 29.4734C693.38 32.7549 694.589 37.7347 694.589 44.4129C694.589 58.2873 690.012 65.2246 680.859 65.2246H676.541V65.6564L695.798 85H676.713L663.069 69.2833C662.839 68.9954 662.378 68.5061 661.688 67.8152C660.997 67.0668 660.479 66.4911 660.133 66.0881C659.788 65.6851 659.385 65.167 658.924 64.5337C658.464 63.9005 658.118 63.2672 657.888 62.6339C657.715 62.0006 657.629 61.3674 657.629 60.7341V59.3524C657.629 57.2799 658.349 55.8694 659.788 55.121C661.227 54.315 663.472 53.912 666.524 53.912H671.618C674.382 53.912 676.253 53.2212 677.232 51.8395C678.21 50.4578 678.7 48.155 678.7 44.931C678.7 41.8222 678.153 39.6633 677.059 38.4544C675.965 37.2454 673.95 36.6409 671.014 36.6409H656.593C655.096 36.6409 654.031 36.9575 653.397 37.5908C652.822 38.1665 652.534 39.2028 652.534 40.6996V85H636.99Z" fill="white"/>
<defs>
<clipPath id="clip0_15_555">
<rect width="107.784" height="120" fill="white" transform="translate(0.666992)"/>
</clipPath>
</defs>
</svg>
