<svg width="109" height="120" viewBox="0 0 109 120" fill="none" xmlns="http://www.w3.org/2000/svg">
<g clip-path="url(#clip0_15_564)">
<path d="M108.452 0V42.5318L87.3458 53.1925V37.172C77.1711 40.2789 66.0348 41.9139 54.5583 41.9139C43.0818 41.9139 31.9454 40.2754 21.7742 37.172V78.5096C21.7742 80.8771 22.8573 83.1544 24.7214 84.8797C1.5879 69.8901 0.667969 49.6864 0.667969 49.6864V0C3.91722 4.24902 8.16276 7.45314 11.2697 9.44573C14.4773 11.5043 18.0008 13.3094 21.7777 14.8299C31.4178 18.7214 42.693 20.8042 54.5617 20.8042C66.4305 20.8042 77.7057 18.7214 87.3493 14.8299C91.1262 13.3094 94.6462 11.5043 97.8573 9.44573C100.961 7.45314 105.206 4.24902 108.459 0H108.452Z" fill="white"/>
<path d="M59.9043 97.7205C33.7159 110.811 14.6578 103.695 14.6578 103.695C5.948 98.0468 0.667969 88.674 0.667969 78.5097V49.6865C0.667969 49.6865 1.5879 69.8902 24.7214 84.8798C24.7249 84.8902 24.7318 84.8902 24.7353 84.8936C25.4608 85.5602 26.3079 86.1468 27.2486 86.6259L30.7235 88.3789C30.8068 88.4206 30.8867 88.4623 30.9735 88.5039C31.3518 88.7018 31.7372 88.8997 32.126 89.0906L48.886 97.5574C52.2775 99.2688 56.4606 99.3243 59.9043 97.7171V97.7205Z" fill="white"/>
<path d="M108.451 73.2054V96.8353L87.3415 107.503L69.7483 116.397C64.9925 118.802 59.7715 120 54.5505 120C49.3294 120 44.1223 118.802 39.3665 116.397L17.7361 105.462C16.6807 104.941 15.681 104.365 14.709 103.716C15.9066 104.125 34.5794 110.388 59.8999 97.7205C60.011 97.665 60.1256 97.6095 60.2366 97.5504L87.3415 83.8557L108.451 73.2019V73.2054Z" fill="white"/>
<path d="M87.3428 87.2265V71.4489L108.452 60.7986V87.2265H87.3428Z" fill="white"/>
</g>
<defs>
<clipPath id="clip0_15_564">
<rect width="107.784" height="120" fill="white" transform="translate(0.666992)"/>
</clipPath>
</defs>
</svg>
